<svg width="435" height="435" xmlns="http://www.w3.org/2000/svg" xmlns:xlink="http://www.w3.org/1999/xlink" xml:space="preserve" overflow="hidden"><defs><filter id="fx0" x="-10%" y="-10%" width="120%" height="120%" filterUnits="userSpaceOnUse" primitiveUnits="userSpaceOnUse"><feComponentTransfer color-interpolation-filters="sRGB"><feFuncR type="discrete" tableValues="0 0"/><feFuncG type="discrete" tableValues="0 0"/><feFuncB type="discrete" tableValues="0 0"/><feFuncA type="linear" slope="0.74902" intercept="0"/></feComponentTransfer><feGaussianBlur stdDeviation="7.63889 7.63889"/></filter></defs><g transform="translate(-1339 -859)"><g filter="url(#fx0)" transform="translate(1339 859)"><g><path d="M38.7499 217.5C38.7499 118.779 118.779 38.7501 217.5 38.7501 316.221 38.7501 396.25 118.779 396.25 217.5 396.25 316.221 316.221 396.25 217.5 396.25 118.779 396.25 38.7499 316.221 38.7499 217.5Z" stroke="#FFFFFF" stroke-width="30" stroke-miterlimit="8" fill="#C08DC7" fill-rule="evenodd"/><g><g><g><g><path d="M122.35 134.175C122.35 127.634 127.634 122.35 134.175 122.35L299.725 122.35C306.266 122.35 311.55 127.634 311.55 134.175 311.55 140.716 306.266 146 299.725 146L299.725 287.9C306.266 287.9 311.55 293.184 311.55 299.725 311.55 306.266 306.266 311.55 299.725 311.55L234.688 311.55 234.688 293.812C234.688 284.02 226.743 276.075 216.95 276.075 207.157 276.075 199.212 284.02 199.212 293.812L199.212 311.55 134.175 311.55C127.634 311.55 122.35 306.266 122.35 299.725 122.35 293.184 127.634 287.9 134.175 287.9L134.175 146C127.634 146 122.35 140.716 122.35 134.175ZM157.825 163.737 157.825 175.562C157.825 178.814 160.486 181.475 163.737 181.475L175.562 181.475C178.814 181.475 181.475 178.814 181.475 175.562L181.475 163.737C181.475 160.486 178.814 157.825 175.562 157.825L163.737 157.825C160.486 157.825 157.825 160.486 157.825 163.737ZM211.037 157.825C207.786 157.825 205.125 160.486 205.125 163.737L205.125 175.562C205.125 178.814 207.786 181.475 211.037 181.475L222.862 181.475C226.114 181.475 228.775 178.814 228.775 175.562L228.775 163.737C228.775 160.486 226.114 157.825 222.862 157.825L211.037 157.825ZM252.425 163.737 252.425 175.562C252.425 178.814 255.086 181.475 258.338 181.475L270.163 181.475C273.414 181.475 276.075 178.814 276.075 175.562L276.075 163.737C276.075 160.486 273.414 157.825 270.163 157.825L258.338 157.825C255.086 157.825 252.425 160.486 252.425 163.737ZM163.737 193.3C160.486 193.3 157.825 195.961 157.825 199.212L157.825 211.037C157.825 214.289 160.486 216.95 163.737 216.95L175.562 216.95C178.814 216.95 181.475 214.289 181.475 211.037L181.475 199.212C181.475 195.961 178.814 193.3 175.562 193.3L163.737 193.3ZM205.125 199.212 205.125 211.037C205.125 214.289 207.786 216.95 211.037 216.95L222.862 216.95C226.114 216.95 228.775 214.289 228.775 211.037L228.775 199.212C228.775 195.961 226.114 193.3 222.862 193.3L211.037 193.3C207.786 193.3 205.125 195.961 205.125 199.212ZM258.338 193.3C255.086 193.3 252.425 195.961 252.425 199.212L252.425 211.037C252.425 214.289 255.086 216.95 258.338 216.95L270.163 216.95C273.414 216.95 276.075 214.289 276.075 211.037L276.075 199.212C276.075 195.961 273.414 193.3 270.163 193.3L258.338 193.3ZM243.556 264.25C248.471 264.25 252.536 260.222 251.316 255.455 247.399 240.12 233.505 228.775 216.95 228.775 200.395 228.775 186.464 240.12 182.584 255.455 181.364 260.185 185.466 264.25 190.344 264.25L243.556 264.25Z" fill="#FFFFFF"/></g></g></g></g></g></g><path d="M1394 1076.5C1394 986.754 1466.75 914 1556.5 914 1646.25 914 1719 986.754 1719 1076.5 1719 1166.25 1646.25 1239 1556.5 1239 1466.75 1239 1394 1166.25 1394 1076.5Z" stroke="#FFFFFF" stroke-width="27.5" stroke-miterlimit="8" fill="#C08DC7" fill-rule="evenodd"/><g><g><g><g><path d="M1470 1000.75C1470 994.804 1474.8 990 1480.75 990L1631.25 990C1637.2 990 1642 994.804 1642 1000.75 1642 1006.7 1637.2 1011.5 1631.25 1011.5L1631.25 1140.5C1637.2 1140.5 1642 1145.3 1642 1151.25 1642 1157.2 1637.2 1162 1631.25 1162L1572.12 1162 1572.12 1145.87C1572.12 1136.97 1564.9 1129.75 1556 1129.75 1547.1 1129.75 1539.88 1136.97 1539.88 1145.87L1539.88 1162 1480.75 1162C1474.8 1162 1470 1157.2 1470 1151.25 1470 1145.3 1474.8 1140.5 1480.75 1140.5L1480.75 1011.5C1474.8 1011.5 1470 1006.7 1470 1000.75ZM1502.25 1027.62 1502.25 1038.38C1502.25 1041.33 1504.67 1043.75 1507.62 1043.75L1518.38 1043.75C1521.33 1043.75 1523.75 1041.33 1523.75 1038.38L1523.75 1027.62C1523.75 1024.67 1521.33 1022.25 1518.38 1022.25L1507.62 1022.25C1504.67 1022.25 1502.25 1024.67 1502.25 1027.62ZM1550.62 1022.25C1547.67 1022.25 1545.25 1024.67 1545.25 1027.62L1545.25 1038.38C1545.25 1041.33 1547.67 1043.75 1550.62 1043.75L1561.38 1043.75C1564.33 1043.75 1566.75 1041.33 1566.75 1038.38L1566.75 1027.62C1566.75 1024.67 1564.33 1022.25 1561.38 1022.25L1550.62 1022.25ZM1588.25 1027.62 1588.25 1038.38C1588.25 1041.33 1590.67 1043.75 1593.62 1043.75L1604.38 1043.75C1607.33 1043.75 1609.75 1041.33 1609.75 1038.38L1609.75 1027.62C1609.75 1024.67 1607.33 1022.25 1604.38 1022.25L1593.62 1022.25C1590.67 1022.25 1588.25 1024.67 1588.25 1027.62ZM1507.62 1054.5C1504.67 1054.5 1502.25 1056.92 1502.25 1059.88L1502.25 1070.62C1502.25 1073.58 1504.67 1076 1507.62 1076L1518.38 1076C1521.33 1076 1523.75 1073.58 1523.75 1070.62L1523.75 1059.88C1523.75 1056.92 1521.33 1054.5 1518.38 1054.5L1507.62 1054.5ZM1545.25 1059.88 1545.25 1070.62C1545.25 1073.58 1547.67 1076 1550.62 1076L1561.38 1076C1564.33 1076 1566.75 1073.58 1566.75 1070.62L1566.75 1059.88C1566.75 1056.92 1564.33 1054.5 1561.38 1054.5L1550.62 1054.5C1547.67 1054.5 1545.25 1056.92 1545.25 1059.88ZM1593.62 1054.5C1590.67 1054.5 1588.25 1056.92 1588.25 1059.88L1588.25 1070.62C1588.25 1073.58 1590.67 1076 1593.62 1076L1604.38 1076C1607.33 1076 1609.75 1073.58 1609.75 1070.62L1609.75 1059.88C1609.75 1056.92 1607.33 1054.5 1604.38 1054.5L1593.62 1054.5ZM1580.19 1119C1584.66 1119 1588.35 1115.34 1587.24 1111 1583.68 1097.06 1571.05 1086.75 1556 1086.75 1540.95 1086.75 1528.29 1097.06 1524.76 1111 1523.65 1115.3 1527.38 1119 1531.81 1119L1580.19 1119Z" fill="#FFFFFF"/></g></g></g></g></g></svg>